HIERARCHY
ROOT Hips
{
	OFFSET 0.000000 89.005402 0.000000
	CHANNELS 6 Xposition Yposition Zposition Xrotation Yrotation Zrotation
	JOINT Spine
	{
		OFFSET 0.116900 10.681000 0.373400
		CHANNELS 3 Xrotation Yrotation Zrotation
		JOINT Spine1
		{
			OFFSET 0.000000 13.840401 0.053500
			CHANNELS 3 Xrotation Yrotation Zrotation
			JOINT Spine2
			{
				OFFSET 0.000000 14.712700 -0.366200
				CHANNELS 3 Xrotation Yrotation Zrotation
				JOINT Neck
				{
					OFFSET 0.000000 35.415497 -3.314200
					CHANNELS 3 Xrotation Yrotation Zrotation
					JOINT Head
					{
						OFFSET 0.000000 16.899200 1.218300
						CHANNELS 3 Xrotation Yrotation Zrotation
						JOINT HeadTop_End
						{
							OFFSET 0.000000 22.206207 2.192500
							CHANNELS 3 Xrotation Yrotation Zrotation
							End Site
							{
								OFFSET 0.000000 22.314178 0.000000
							}
						}
					}
				}
				JOINT LeftShoulder
				{
					OFFSET 12.896400 26.716293 -4.548400
					CHANNELS 3 Xrotation Yrotation Zrotation
					JOINT LeftArm
					{
						OFFSET 19.027000 -4.857010 -1.718400
						CHANNELS 3 Xrotation Yrotation Zrotation
						JOINT LeftForeArm
						{
							OFFSET 24.179897 0.000000 0.000000
							CHANNELS 3 Xrotation Yrotation Zrotation
							JOINT LeftHand
							{
								OFFSET 27.156403 0.000000 0.000000
								CHANNELS 3 Xrotation Yrotation Zrotation
								JOINT LeftHandIndex1
								{
									OFFSET 16.441200 0.000000 0.000000
									CHANNELS 3 Xrotation Yrotation Zrotation
									JOINT LeftHandIndex2
									{
										OFFSET 4.821899 0.000000 0.000000
										CHANNELS 3 Xrotation Yrotation Zrotation
										JOINT LeftHandIndex3
										{
											OFFSET 6.386497 0.000000 0.000000
											CHANNELS 3 Xrotation Yrotation Zrotation
											JOINT LeftHandIndex4
											{
												OFFSET 5.188988 0.000000 0.000000
												CHANNELS 3 Xrotation Yrotation Zrotation
												End Site
												{
													OFFSET -0.178703 5.185913 0.000177
												}
											}
										}
									}
								}
								JOINT LeftHandThumb1
								{
									OFFSET 6.534897 -5.032593 5.900300
									CHANNELS 3 Xrotation Yrotation Zrotation
									JOINT LeftHandThumb2
									{
										OFFSET 3.818176 -2.204422 2.204423
										CHANNELS 3 Xrotation Yrotation Zrotation
										JOINT LeftHandThumb3
										{
											OFFSET 3.252098 -1.877594 1.877601
											CHANNELS 3 Xrotation Yrotation Zrotation
											JOINT LeftHandThumb4
											{
												OFFSET 5.251778 -3.032120 3.032117
												CHANNELS 3 Xrotation Yrotation Zrotation
												End Site
												{
													OFFSET 0.000023 6.780014 0.000000
												}
											}
										}
									}
								}
							}
						}
					}
				}
				JOINT RightShoulder
				{
					OFFSET -12.896300 26.716293 -4.548400
					CHANNELS 3 Xrotation Yrotation Zrotation
					JOINT RightArm
					{
						OFFSET -19.027000 -4.857010 -1.718400
						CHANNELS 3 Xrotation Yrotation Zrotation
						JOINT RightForeArm
						{
							OFFSET -24.179897 0.000000 0.000000
							CHANNELS 3 Xrotation Yrotation Zrotation
							JOINT RightHand
							{
								OFFSET -27.156403 0.000000 0.000000
								CHANNELS 3 Xrotation Yrotation Zrotation
								JOINT RightHandThumb1
								{
									OFFSET -6.591202 -4.852203 5.988100
									CHANNELS 3 Xrotation Yrotation Zrotation
									JOINT RightHandThumb2
									{
										OFFSET -3.818176 -2.204422 2.204423
										CHANNELS 3 Xrotation Yrotation Zrotation
										JOINT RightHandThumb3
										{
											OFFSET -3.252098 -1.877594 1.877601
											CHANNELS 3 Xrotation Yrotation Zrotation
											JOINT RightHandThumb4
											{
												OFFSET -5.251778 -3.032120 3.032117
												CHANNELS 3 Xrotation Yrotation Zrotation
												End Site
												{
													OFFSET -0.000023 6.780014 0.000000
												}
											}
										}
									}
								}
								JOINT RightHandIndex1
								{
									OFFSET -16.029404 0.000000 0.000000
									CHANNELS 3 Xrotation Yrotation Zrotation
									JOINT RightHandIndex2
									{
										OFFSET -5.213303 0.000000 0.000000
										CHANNELS 3 Xrotation Yrotation Zrotation
										JOINT RightHandIndex3
										{
											OFFSET -6.386528 0.000000 0.000000
											CHANNELS 3 Xrotation Yrotation Zrotation
											JOINT RightHandIndex4
											{
												OFFSET -5.189026 0.000000 0.000000
												CHANNELS 3 Xrotation Yrotation Zrotation
												End Site
												{
													OFFSET 0.236702 5.183624 0.001972
												}
											}
										}
									}
								}
							}
						}
					}
				}
			}
		}
	}
	JOINT LeftUpLeg
	{
		OFFSET 14.073000 -7.904099 -1.463000
		CHANNELS 3 Xrotation Yrotation Zrotation
		JOINT LeftLeg
		{
			OFFSET -0.109806 -34.073280 4.093200
			CHANNELS 3 Xrotation Yrotation Zrotation
			JOINT LeftFoot
			{
				OFFSET 0.109806 -29.899420 -6.319000
				CHANNELS 3 Xrotation Yrotation Zrotation
				JOINT LeftToeBase
				{
					OFFSET 1.551100 -14.988700 20.535801
					CHANNELS 3 Xrotation Yrotation Zrotation
					JOINT LeftToe_End
					{
						OFFSET 0.221200 0.570800 13.248301
						CHANNELS 3 Xrotation Yrotation Zrotation
						End Site
						{
							OFFSET 0.000000 13.262435 0.000000
						}
					}
				}
			}
		}
	}
	JOINT RightUpLeg
	{
		OFFSET -13.839300 -7.904099 -1.463000
		CHANNELS 3 Xrotation Yrotation Zrotation
		JOINT RightLeg
		{
			OFFSET 0.109694 -34.073219 4.093300
			CHANNELS 3 Xrotation Yrotation Zrotation
			JOINT RightFoot
			{
				OFFSET -0.109694 -29.899384 -6.319200
				CHANNELS 3 Xrotation Yrotation Zrotation
				JOINT RightToeBase
				{
					OFFSET -1.551100 -14.988700 20.535801
					CHANNELS 3 Xrotation Yrotation Zrotation
					JOINT RightToe_End
					{
						OFFSET -0.221200 0.570900 13.248299
						CHANNELS 3 Xrotation Yrotation Zrotation
						End Site
						{
							OFFSET 0.000000 13.262440 0.000000
						}
					}
				}
			}
		}
	}
}
MOTION
Frames: 6
Frame Time: 0.033333
-0.607980 79.984360 0.469630 -6.088558 -43.050529 -3.827488 5.849316 4.641331 -1.435630 11.836541 9.037612 -3.083970 11.836540 9.037616 -3.083970 -4.303052 -1.272947 0.206308 -6.271933 20.437799 -0.377162 -0.000000 0.000000 0.000000 1.392467 -0.696056 -7.877843 -14.260107 2.394317 -63.277099 9.865048 -47.524893 5.927929 16.172822 0.915173 18.795436 -0.902011 -6.980971 -3.808430 0.033412 0.804244 -16.418981 -0.000004 -0.000008 -0.000004 0.000003 0.000001 -0.000002 9.163600 4.814076 -5.499034 -0.335373 0.032572 0.783681 0.000006 0.000013 0.000003 0.000001 -0.000004 0.000003 1.410929 9.461502 9.792740 1.220050 -24.270708 60.532927 -6.660699 41.858391 8.043837 6.225270 12.322344 11.673284 -8.895848 -4.903144 -0.383714 7.904814 -19.192478 -2.856847 0.000011 -0.000014 0.000007 0.000001 -0.000000 -0.000002 -1.085514 -1.215491 4.525245 0.142134 -1.115554 16.942638 0.000001 -0.000000 -0.000007 0.000001 -0.000001 -0.000000 -28.485393 5.182548 14.578199 34.635066 -14.334098 -0.205336 -3.670990 0.866335 -8.986278 -2.319086 -3.216990 0.802957 0.000000 0.000000 0.000000 1.415652 -14.234501 -17.388664 32.174405 -7.617758 -0.167246 -24.801474 -6.085329 20.111921 -1.784967 -0.356702 0.333182 0.000000 0.000002 -0.000000 
-0.472133 80.112167 0.548039 -5.182252 -41.397807 -3.727097 5.656002 4.018484 -1.138432 11.401656 7.824317 -2.396861 11.401661 7.824322 -2.396864 -4.769570 -1.669554 1.742519 -5.030414 20.987981 -1.598565 -0.000000 0.000000 0.000000 1.186185 -1.443594 -6.454565 -10.485032 3.814088 -61.338937 16.366591 -52.562380 9.333253 16.605218 -0.558530 11.885483 -0.628148 -6.646129 1.970196 0.013141 0.737749 -16.984637 -0.000005 -0.000009 0.000001 -0.000004 0.000003 -0.000002 11.828665 2.660892 -6.576807 2.631299 7.133496 2.107967 0.000007 0.000009 0.000003 -0.000002 0.000001 -0.000004 1.355547 9.527825 9.708564 -2.537037 -20.407885 58.465019 -6.682124 42.516005 8.827238 5.234684 10.687703 11.545652 -9.631225 -2.619225 0.572848 6.401929 -15.817931 -2.775139 0.000013 -0.000014 0.000008 0.000001 -0.000000 0.000001 -1.257750 1.090769 3.896603 0.074739 -0.908517 19.111837 0.000001 -0.000000 -0.000006 0.000000 -0.000001 -0.000000 -29.418332 3.747939 14.031593 34.343847 -14.452622 0.118692 -2.986686 0.790225 -9.094116 -2.319078 -3.216956 0.802951 -0.000000 -0.000002 0.000000 2.518802 -14.017169 -16.280939 30.760607 -9.663414 0.335815 -24.056281 -6.216811 20.538398 -1.784967 -0.356699 0.333182 -0.000000 0.000000 0.000000 
-0.544409 80.142654 0.700253 -3.872025 -37.385542 -3.556623 5.427413 3.240061 -0.852129 10.901449 6.273620 -1.708122 10.901448 6.273612 -1.708119 -4.514918 -2.341012 3.370570 -3.571647 21.197678 -2.143149 0.000000 0.000000 -0.000000 1.104870 -1.569918 -5.123171 -3.641856 6.079644 -59.195624 27.351518 -63.298860 16.871315 17.340018 -1.988704 4.960573 -0.132711 -6.352484 9.742077 0.021626 0.767942 -16.719786 -0.000006 -0.000005 0.000001 0.000002 -0.000000 -0.000002 14.668323 0.184762 -7.453773 5.569304 14.839327 3.486955 0.000008 0.000012 0.000002 0.000000 0.000000 0.000004 1.155141 9.857971 9.813318 -9.668934 -13.313377 55.077973 -9.654289 43.607835 11.587769 1.648901 6.819664 9.841859 -10.673823 0.224850 1.738165 4.621755 -11.775492 -2.559257 0.000009 -0.000016 0.000007 -0.000001 -0.000001 -0.000001 -1.370630 3.703544 2.712362 0.013807 -0.740899 20.889591 0.000001 -0.000007 -0.000008 -0.000000 0.000002 0.000000 -31.344606 1.740098 12.786716 34.151646 -16.125009 0.735810 -1.784222 0.631276 -8.995672 -2.319089 -3.216979 0.802955 -0.000000 0.000002 0.000000 5.347509 -13.299373 -13.991632 28.700820 -14.731859 1.182991 -23.303086 -6.653955 21.770634 -1.784967 -0.356700 0.333182 -0.000000 0.000001 -0.000000 
-0.868606 79.972855 0.916957 -2.804205 -31.514397 -3.528524 5.282946 2.597983 -0.705700 10.590158 4.942535 -1.322569 10.590158 4.942535 -1.322567 -4.149418 -3.431886 3.090227 -2.282450 20.028947 -0.876436 -0.000001 0.000000 -0.000000 1.213922 -1.145731 -5.262356 1.717395 9.911807 -55.937371 36.557570 -76.629873 25.675724 16.657928 -3.745929 -1.533091 0.126839 -6.035449 15.513870 0.001011 0.701563 -17.285438 -0.000004 -0.000008 0.000001 0.000002 0.000000 -0.000001 17.145045 -2.222043 -8.276634 8.524530 21.987132 4.140835 0.000008 0.000011 0.000008 -0.000000 0.000000 -0.000003 0.874333 11.018561 8.969982 -16.961952 -6.054777 53.382173 -15.246072 42.857709 15.311811 -3.752569 2.252760 7.528171 -11.750471 3.047068 2.972912 2.848095 -7.741371 -2.219084 0.000011 -0.000016 0.000007 0.000003 0.000001 0.000001 -1.383265 6.320027 1.527377 -0.052277 -0.575231 22.667463 0.000002 -0.000001 -0.000006 0.000001 0.000002 -0.000000 -33.792398 0.092704 10.825301 34.334377 -19.714202 1.617821 -0.329700 0.501173 -8.616491 -2.319088 -3.216991 0.802953 0.000000 -0.000001 0.000000 9.498228 -12.053340 -10.844424 26.639162 -22.118808 2.163020 -22.716574 -7.323821 23.613742 -1.784967 -0.356702 0.333182 0.000000 -0.000000 -0.000000 
-1.374653 79.465210 1.266427 -2.417989 -25.022130 -3.656987 5.316790 2.434899 -0.784555 10.656612 4.502914 -1.447511 10.656608 4.502907 -1.447510 -3.545206 -5.627344 -0.720273 -0.692922 16.957299 2.265042 -0.000000 -0.000000 0.000000 1.389832 -0.832234 -6.673099 2.347122 14.634053 -53.055987 -27.517908 -84.962697 -33.770200 13.698240 -6.339862 -7.722061 -0.368731 -5.692105 15.303194 -0.118513 0.349184 -20.343025 -0.000003 -0.000004 -0.000003 -0.000000 0.000001 -0.000002 18.760938 -4.116491 -9.275728 11.559989 27.421873 3.267272 0.000008 0.000012 0.000004 -0.000000 0.000000 0.000005 0.622742 13.178713 6.793584 -23.133275 -1.038395 54.019734 -20.607593 39.143107 17.839001 -9.326630 -0.970922 6.314895 -12.561196 5.285232 4.070360 1.361327 -4.386505 -1.841572 0.000012 -0.000013 0.000008 0.000001 0.000002 0.000000 -1.374383 8.633687 0.901507 -0.139883 -0.375971 24.837160 0.000001 -0.000000 -0.000006 0.000001 -0.000003 -0.000000 -36.251827 -0.742185 8.414424 35.753445 -24.468439 2.629970 0.665523 0.489260 -7.880431 -2.319085 -3.216997 0.802951 -0.000000 -0.000002 -0.000000 14.002528 -10.376244 -7.332570 25.344551 -30.343153 2.698726 -22.426325 -8.217152 26.075350 -1.784967 -0.356700 0.333182 -0.000000 0.000001 -0.000000 
-1.910204 78.407150 1.788259 -2.587810 -19.216227 -3.784367 5.509443 2.955036 -1.072246 11.062109 5.367306 -2.058803 11.062112 5.367309 -2.058804 -2.659802 -9.535403 -6.559510 2.232865 12.946444 6.495339 0.000001 0.000000 0.000000 1.406610 -1.715317 -8.129974 -0.518371 18.850472 -52.715991 -65.144282 -75.058971 -62.396613 9.188713 -9.453453 -13.764410 -1.959863 -4.970312 4.386503 -0.498137 -0.500783 -28.005678 -0.000000 -0.000004 -0.000002 -0.000000 0.000002 -0.000002 19.026506 -5.021026 -10.811846 14.758772 29.955219 -0.018245 0.000008 0.000013 0.000002 -0.000000 -0.000001 0.000003 0.418766 15.589159 4.573203 -26.604442 1.571549 55.656257 -22.530229 35.021535 18.751996 -13.463226 -2.123684 7.798665 -12.778786 6.394141 4.774250 0.458972 -2.373172 -1.573056 0.000009 -0.000012 0.000009 -0.000001 -0.000001 -0.000001 -1.513372 10.338690 1.409719 -0.271272 -0.110317 27.790604 0.000000 0.000001 -0.000009 0.000000 -0.000000 0.000001 -38.903340 -1.337851 6.016300 39.478200 -28.683499 3.515965 0.437316 0.558350 -6.671667 -2.319084 -3.216986 0.802953 0.000000 0.000001 0.000000 17.452817 -8.195043 -3.963302 25.976425 -38.309346 2.262567 -22.619638 -9.387623 29.652272 -1.784967 -0.356699 0.333182 0.000000 0.000000 0.000000 
